<?xml version="1.0" standalone="no"?><!DOCTYPE svg PUBLIC "-//W3C//DTD SVG 1.1//EN" "http://www.w3.org/Graphics/SVG/1.1/DTD/svg11.dtd"><svg t="1646125404144" class="icon" viewBox="0 0 1024 1024" version="1.1" xmlns="http://www.w3.org/2000/svg" p-id="9530" xmlns:xlink="http://www.w3.org/1999/xlink" width="200" height="200"><defs><style type="text/css"></style></defs><path d="M917.331968 63.870976l-817.54112 0c-21.486592 0-39.617536 18.146304-39.617536 39.61344l0 817.559552c0 21.469184 18.130944 40.081408 39.617536 40.081408l817.54112 0c21.481472 0 39.135232-18.612224 39.135232-40.081408L956.4672 103.484416C956.466176 82.01728 938.812416 63.870976 917.331968 63.870976zM557.95712 829.887488 415.726592 829.887488 415.726592 693.866496l142.230528 0L557.95712 829.887488zM612.84352 522.048512c-43.85792 32.526336-63.481856 66.817024-63.481856 101.658624l0 26.249216L418.118656 649.956352l0-34.839552c0-56.794112 24.67328-100.445184 81.60768-139.839488 49.973248-34.582528 74.032128-73.022464 72.544256-113.112064-1.855488-50.113536-26.249216-78.749696-72.544256-78.749696-53.454848 0-83.999744 40.090624-95.921152 116.453376L273.02912 399.868928c19.090432-136.976384 93.539328-205.165568 226.697216-203.316224 139.844608 1.969152 209.257472 56.297472 214.774784 159.885312C717.574144 414.175232 683.528192 469.627904 612.84352 522.048512z" p-id="9531" fill="#00008B"></path></svg>