<?xml version="1.0" standalone="no"?><!DOCTYPE svg PUBLIC "-//W3C//DTD SVG 1.1//EN" "http://www.w3.org/Graphics/SVG/1.1/DTD/svg11.dtd"><svg t="1646125380540" class="icon" viewBox="0 0 1024 1024" version="1.1" xmlns="http://www.w3.org/2000/svg" p-id="8613" xmlns:xlink="http://www.w3.org/1999/xlink" width="200" height="200"><defs><style type="text/css"></style></defs><path d="M930.133333 327.466667H93.866667a8.533333 8.533333 0 0 0-8.533334 8.533333v571.733333a8.533333 8.533333 0 0 0 8.533334 8.533334h836.266666a8.533333 8.533333 0 0 0 8.533334-8.533334v-571.733333a8.533333 8.533333 0 0 0-8.533334-8.533333zM641.066667 477.866667a8.533333 8.533333 0 0 1 8.533333-8.533334h119.466667a8.533333 8.533333 0 0 1 8.533333 8.533334v136.533333a8.533333 8.533333 0 0 1-8.533333 8.533333h-119.466667a8.533333 8.533333 0 0 1-8.533333-8.533333v-136.533333zM238.933333 477.866667a8.533333 8.533333 0 0 1 8.533334-8.533334h349.866666a8.533333 8.533333 0 0 1 8.533334 8.533334v25.6a8.533333 8.533333 0 0 1-8.533334 8.533333H247.466667a8.533333 8.533333 0 0 1-8.533334-8.533333v-25.6z m0 92.445866a8.533333 8.533333 0 0 1 8.533334-8.533333h238.933333a8.533333 8.533333 0 0 1 8.533333 8.533333v25.6a8.533333 8.533333 0 0 1-8.533333 8.533334H247.466667a8.533333 8.533333 0 0 1-8.533334-8.533334v-25.6zM678.4 780.8a8.533333 8.533333 0 0 1-8.533333 8.533333H247.466667a8.533333 8.533333 0 0 1-8.533334-8.533333v-25.6a8.533333 8.533333 0 0 1 8.533334-8.533333h422.4a8.533333 8.533333 0 0 1 8.533333 8.533333v25.6z m106.666667-92.445867a8.533333 8.533333 0 0 1-8.533334 8.533334H247.466667a8.533333 8.533333 0 0 1-8.533334-8.533334v-25.6a8.533333 8.533333 0 0 1 8.533334-8.533333h529.066666a8.533333 8.533333 0 0 1 8.533334 8.533333v25.6z" fill="#00008B" p-id="8614"></path><path d="M735.3216 325.730133L518.101333 108.5056a8.507733 8.507733 0 0 0-6.101333-2.491733 8.516267 8.516267 0 0 0-6.101333 2.491733L288.6784 325.730133a8.533333 8.533333 0 0 0 0 12.066134l18.103467 18.103466a8.533333 8.533333 0 0 0 12.066133 0L512 162.747733l193.152 193.152a8.533333 8.533333 0 0 0 12.066133 0l18.103467-18.103466a8.533333 8.533333 0 0 0 0-12.066134z" fill="#00008B" p-id="8615"></path></svg>