<?xml version="1.0" standalone="no"?><!DOCTYPE svg PUBLIC "-//W3C//DTD SVG 1.1//EN" "http://www.w3.org/Graphics/SVG/1.1/DTD/svg11.dtd"><svg t="1646125362219" class="icon" viewBox="0 0 1024 1024" version="1.1" xmlns="http://www.w3.org/2000/svg" p-id="7611" xmlns:xlink="http://www.w3.org/1999/xlink" width="200" height="200"><defs><style type="text/css"></style></defs><path d="M922.68 490.37H714.36V99.87c0-19.88-16.12-36-36-36H100.01c-19.88 0-36 16.12-36 36v701.49c0 87.21 70.95 158.16 158.16 158.16h578.35c87.21 0 158.16-70.95 158.16-158.16V526.37c0-19.88-16.12-36-36-36zM136.01 801.36V135.87h506.35v665.49c0 31.76 9.42 61.36 25.59 86.16H222.17c-47.51 0-86.16-38.65-86.16-86.16z m664.51 86.16c-47.51 0-86.16-38.65-86.16-86.16V562.37h172.32v238.99c0 47.51-38.65 86.16-86.16 86.16z" p-id="7612" fill="#00008B"></path><path d="M564.51 597.1H213.48c-19.88 0-36-16.12-36-36V210.07c0-19.88 16.12-36 36-36h351.04c19.88 0 36 16.12 36 36V561.1c-0.01 19.89-16.12 36-36.01 36z m-315.03-72h279.04V246.07H249.48V525.1zM564.51 716.86H213.48c-19.88 0-36-16.12-36-36s16.12-36 36-36h351.04c19.88 0 36 16.12 36 36s-16.12 36-36.01 36zM564.51 827.85H213.48c-19.88 0-36-16.12-36-36s16.12-36 36-36h351.04c19.88 0 36 16.12 36 36s-16.12 36-36.01 36z" p-id="7613" fill="#00008B"></path></svg>