<?xml version="1.0" standalone="no"?><!DOCTYPE svg PUBLIC "-//W3C//DTD SVG 1.1//EN" "http://www.w3.org/Graphics/SVG/1.1/DTD/svg11.dtd"><svg t="1643701574019" class="icon" viewBox="0 0 1024 1024" version="1.1" xmlns="http://www.w3.org/2000/svg" p-id="7136" xmlns:xlink="http://www.w3.org/1999/xlink" width="200" height="200"><defs><style type="text/css"></style></defs><path d="M896 51.2h-768c-12.8 0-25.6 12.8-25.6 25.6v870.4c0 12.8 12.8 25.6 25.6 25.6h768c12.8 0 25.6-12.8 25.6-25.6v-870.4c0-12.8-12.8-25.6-25.6-25.6z m-179.2 51.2v153.6l-20.48-15.36-30.72-23.04-30.72 23.04-20.48 15.36v-153.6h102.4z m-563.2 819.2v-819.2h102.4v819.2h-102.4z m716.8 0h-563.2v-819.2h256v204.8c0 15.36 12.8 25.6 25.6 25.6 5.12 0 10.24-2.56 15.36-5.12l61.44-46.08 61.44 46.08c5.12 2.56 10.24 5.12 15.36 5.12 12.8 0 25.6-10.24 25.6-25.6v-204.8h102.4v819.2z" p-id="7137" fill="#1296db"></path><path d="M435.2 563.2h51.2v51.2c0 12.8 12.8 25.6 25.6 25.6s25.6-12.8 25.6-25.6v-51.2h51.2c12.8 0 25.6-12.8 25.6-25.6s-12.8-25.6-25.6-25.6h-51.2v-51.2c0-12.8-12.8-25.6-25.6-25.6s-25.6 12.8-25.6 25.6v51.2h-51.2c-12.8 0-25.6 12.8-25.6 25.6s10.24 25.6 25.6 25.6zM768 691.2h-332.8c-12.8 0-25.6 12.8-25.6 25.6s12.8 25.6 25.6 25.6h332.8c12.8 0 25.6-12.8 25.6-25.6s-12.8-25.6-25.6-25.6zM768 793.6h-332.8c-12.8 0-25.6 12.8-25.6 25.6s12.8 25.6 25.6 25.6h332.8c12.8 0 25.6-12.8 25.6-25.6s-12.8-25.6-25.6-25.6z" p-id="7138" fill="#1296db"></path></svg>