<?xml version="1.0" standalone="no"?><!DOCTYPE svg PUBLIC "-//W3C//DTD SVG 1.1//EN" "http://www.w3.org/Graphics/SVG/1.1/DTD/svg11.dtd"><svg t="1643700361901" class="icon" viewBox="0 0 1024 1024" version="1.1" xmlns="http://www.w3.org/2000/svg" p-id="6781" xmlns:xlink="http://www.w3.org/1999/xlink" width="200" height="200"><defs><style type="text/css"></style></defs><path d="M435.2 179.2c-105.677 0-153.6 63.078-153.6 153.6h51.2c1.74-64.205 43.52-100.762 102.4-102.4 51.712 1.638 74.547 29.798 76.288 77.517 0 24.678-17.818 53.453-53.453 86.425-41.062 36.25-48.435 62.464-48.435 92.058v51.2h51.2v-51.2c0-16.384 8.806-38.605 37.376-64.922 42.803-37.888 64.205-75.673 64.205-113.561 0-75.674-45.159-128.717-127.181-128.717zM409.6 640h51.2v-51.2h-51.2V640z m435.2-163.43V122.06S835.174 51.2 768 51.2H51.2v732.57s9.626 59.596 102.4 61.03c92.774 1.434 281.6 0 281.6 0-11.162 1.434 409.6-368.23 409.6-368.23zM409.6 793.6s-236.851-0.717-256 0c-59.187 2.253-51.2-57.14-51.2-57.14V98.51H768c33.587 0 25.6 28.057 25.6 47.309v307.2L409.6 793.6z m547.43-173.158l-88.985-83.047-15.77-14.643-15.667 14.643-66.765 62.26-244.736 228.249-4.813 4.403-1.33 6.144L486.4 972.8l147.763-26.829 6.656-1.229 4.813-4.403 244.736-228.25 66.765-62.259 15.77-14.643-15.873-14.745zM618.803 906.445l-71.885 13.414 14.336-67.072 224.256-209.1 57.55 53.657-224.257 209.1z m255.795-238.49l-57.548-53.657 35.328-32.87 57.548 53.657-35.328 32.87z" fill="#1296db" p-id="6782"></path></svg>