<?xml version="1.0" standalone="no"?><!DOCTYPE svg PUBLIC "-//W3C//DTD SVG 1.1//EN" "http://www.w3.org/Graphics/SVG/1.1/DTD/svg11.dtd"><svg t="1643550916489" class="icon" viewBox="0 0 1024 1024" version="1.1" xmlns="http://www.w3.org/2000/svg" p-id="5731" xmlns:xlink="http://www.w3.org/1999/xlink" width="200" height="200"><defs><style type="text/css"></style></defs><path d="M608 160v96h-192V128h192z" fill="#13227a" p-id="5732"></path><path d="M512 0c-35.296 0-64 28.704-64 64v32h-32a32 32 0 0 0-32 32H256c-35.296 0-64 28.704-64 64v768c0 35.296 28.704 64 64 64h512c35.296 0 64-28.704 64-64V192c0-35.296-28.704-64-64-64h-128a32 32 0 0 0-32-32h-32V64c0-35.296-28.704-64-64-64z m-32 64c0-17.632 14.368-32 32-32s32 14.368 32 32v32h-64V64z m-32 96h128v64h-128V160z m160 128a32 32 0 0 0 32-32V192h128v768H256V192h128v64a32 32 0 0 0 32 32h192z" fill="#13227a" p-id="5733"></path><path d="M688 864h-256a16 16 0 1 0 0 32h256a16 16 0 1 0 0-32zM688 736h-256a16 16 0 1 0 0 32h256a16 16 0 1 0 0-32zM688 608h-256a16 16 0 1 0 0 32h256a16 16 0 1 0 0-32zM688 480h-256a16 16 0 1 0 0 32h256a16 16 0 1 0 0-32zM432 384h256a16 16 0 1 0 0-32h-256a16 16 0 1 0 0 32zM368 352h-32a16 16 0 1 0 0 32h32a16 16 0 1 0 0-32zM368 480h-32a16 16 0 1 0 0 32h32a16 16 0 1 0 0-32zM368 608h-32a16 16 0 1 0 0 32h32a16 16 0 1 0 0-32zM368 736h-32a16 16 0 1 0 0 32h32a16 16 0 1 0 0-32zM368 864h-32a16 16 0 1 0 0 32h32a16 16 0 1 0 0-32z" fill="#13227a" p-id="5734"></path></svg>